<svg data-v-423bf9ae="" xmlns="http://www.w3.org/2000/svg" viewBox="0 0 1066.3428606305804 193" class="fontAboveSlogan"><!----><!----><!----><g data-v-423bf9ae="" id="aeb10383-407f-4acb-ba20-2fde41d6184c" fill="#ffffff" transform="matrix(12.422360444668922,0,0,12.422360444668922,334.1963113178149,-95.29484836250364)"><path d="M6.29 15.36L6.29 15.36Q6.55 15.55 6.64 15.74L6.64 15.74L6.64 15.74Q6.72 15.93 6.72 16.18L6.72 16.18L6.72 16.18Q6.72 16.58 6.16 16.84L6.16 16.84L6.16 16.84Q5.11 16.98 3.22 17.12L3.22 17.12L3.22 17.12Q1.33 17.25 0.52 17.26L0.52 17.26L0.52 17.26Q0.01 17.00 0.01 16.59L0.01 16.59L0.01 16.59Q0.01 16.42 0.18 16.21L0.18 16.21L3.11 12.60L5.80 9.28L5.80 9.28Q2.80 9.37 2.11 9.81L2.11 9.81L2.11 9.81Q1.92 9.66 1.80 9.37L1.80 9.37L1.80 9.37Q1.68 9.09 1.68 8.85L1.68 8.85L1.68 8.85Q1.68 8.46 2.21 8.20L2.21 8.20L2.21 8.20Q3.26 8.06 5.15 7.93L5.15 7.93L5.15 7.93Q7.04 7.80 7.85 7.78L7.85 7.78L7.85 7.78Q8.36 8.05 8.36 8.46L8.36 8.46L8.36 8.46Q8.36 8.62 8.19 8.83L8.19 8.83L2.65 15.69L2.65 15.69Q5.11 15.54 6.29 15.36L6.29 15.36ZM2.03 16.46L2.03 16.46ZM10.01 9.83L10.01 9.83Q9.73 9.73 9.58 9.53L9.58 9.53L9.58 9.53Q9.44 9.32 9.44 9.04L9.44 9.04L9.44 9.04Q9.44 8.64 9.98 8.40L9.98 8.40L9.98 8.40Q11.98 7.99 14.01 7.83L14.01 7.83L14.01 7.83Q14.56 8.06 14.56 8.47L14.56 8.47L14.56 8.47Q14.56 8.72 14.31 8.96L14.31 8.96L14.31 8.96Q14.06 9.20 13.73 9.30L13.73 9.30L12.96 9.39L12.96 9.39Q12.73 10.44 11.87 13.92L11.87 13.92L11.48 15.48L12.56 15.37L12.56 15.37Q13.10 15.61 13.10 16.02L13.10 16.02L13.10 16.02Q13.10 16.27 12.85 16.51L12.85 16.51L12.85 16.51Q12.60 16.74 12.28 16.84L12.28 16.84L11.72 16.91L11.72 16.91Q9.66 17.14 8.55 17.37L8.55 17.37L8.55 17.37Q8.27 17.28 8.13 17.07L8.13 17.07L8.13 17.07Q7.98 16.87 7.98 16.59L7.98 16.59L7.98 16.59Q7.98 16.18 8.53 15.95L8.53 15.95L8.53 15.95Q9.23 15.81 9.59 15.75L9.59 15.75L11.13 9.63L11.13 9.63Q10.56 9.72 10.01 9.83L10.01 9.83ZM22.51 7.73L22.51 7.73Q23.03 7.83 23.19 7.89L23.19 7.89L23.19 7.89Q23.35 7.95 23.41 8.08L23.41 8.08L23.41 8.08Q23.11 9.21 22.64 11.29L22.64 11.29L22.64 11.29Q22.16 13.37 21.99 14.08L21.99 14.08L21.99 14.08Q21.69 15.51 21.42 16.62L21.42 16.62L21.42 16.62Q21.22 17.39 20.80 17.39L20.80 17.39L20.80 17.39Q19.70 17.39 19.54 16.94L19.54 16.94L19.52 16.97L17.23 10.86L16.37 14.39L16.37 14.39Q16.11 15.36 15.82 16.58L15.82 16.58L15.82 16.58Q15.72 16.98 15.52 17.12L15.52 17.12L15.52 17.12Q15.32 17.26 14.76 17.26L14.76 17.26L14.76 17.26Q14.32 17.26 14.12 17.12L14.12 17.12L14.12 17.12Q13.92 16.97 13.92 16.62L13.92 16.62L13.92 16.62Q13.92 16.46 13.96 16.32L13.96 16.32L15.88 8.75L15.88 8.75Q16.03 8.13 16.21 7.93L16.21 7.93L16.21 7.93Q16.38 7.73 16.84 7.73L16.84 7.73L16.84 7.73Q17.22 7.73 17.51 7.81L17.51 7.81L17.51 7.81Q17.81 7.90 17.82 8.06L17.82 8.06L17.82 8.11L20.08 14.35L20.08 14.35Q20.99 9.95 21.24 9.18L21.24 9.18L21.24 9.18Q21.43 8.60 21.77 8.20L21.77 8.20L21.77 8.20Q22.11 7.81 22.51 7.73L22.51 7.73ZM17.81 8.05L17.81 8.05ZM19.52 16.79L19.52 16.79ZM30.32 11.97L30.32 11.97Q30.90 11.97 31.17 12.17L31.17 12.17L31.17 12.17Q31.44 12.38 31.51 12.66L31.51 12.66L31.51 12.66Q31.58 12.95 31.58 13.40L31.58 13.40L31.58 13.40Q31.58 14.57 30.94 15.48L30.94 15.48L30.94 15.48Q30.30 16.38 29.26 16.88L29.26 16.88L29.26 16.88Q28.22 17.37 27.06 17.37L27.06 17.37L27.06 17.37Q25.38 17.37 24.60 16.44L24.60 16.44L24.60 16.44Q23.81 15.50 23.81 14.14L23.81 14.14L23.81 14.14Q23.81 12.53 24.68 11.07L24.68 11.07L24.68 11.07Q25.54 9.60 26.80 8.72L26.80 8.72L26.80 8.72Q28.07 7.83 29.19 7.83L29.19 7.83L29.19 7.83Q30.76 7.83 31.46 8.45L31.46 8.45L31.46 8.45Q32.16 9.07 32.16 10.26L32.16 10.26L32.16 10.26Q32.16 10.68 31.84 10.98L31.84 10.98L31.84 10.98Q31.53 11.27 31.00 11.27L31.00 11.27L31.00 11.27Q30.58 11.27 30.43 11.05L30.43 11.05L30.43 11.05Q30.28 10.82 30.28 10.47L30.28 10.47L30.30 10.02L30.30 10.02Q30.30 9.77 30.02 9.53L30.02 9.53L30.02 9.53Q29.74 9.30 29.50 9.30L29.50 9.30L29.50 9.30Q28.71 9.30 27.78 10.00L27.78 10.00L27.78 10.00Q26.84 10.71 26.19 11.91L26.19 11.91L26.19 11.91Q25.55 13.10 25.55 14.50L25.55 14.50L25.55 14.50Q25.55 15.15 26.05 15.55L26.05 15.55L26.05 15.55Q26.56 15.96 27.33 15.96L27.33 15.96L27.33 15.96Q27.87 15.96 28.48 15.63L28.48 15.63L28.48 15.63Q29.08 15.30 29.49 14.74L29.49 14.74L29.49 14.74Q29.90 14.17 29.90 13.52L29.90 13.52L29.90 13.52Q29.71 13.55 29.33 13.65L29.33 13.65L29.33 13.65Q28.78 13.79 28.40 13.86L28.40 13.86L28.40 13.86Q28.01 13.93 27.64 13.93L27.64 13.93L27.64 13.93Q27.19 13.93 26.97 13.81L26.97 13.81L26.97 13.81Q26.75 13.69 26.75 13.38L26.75 13.38L26.75 13.38Q26.75 13.17 26.86 12.89L26.86 12.89L26.86 12.89Q26.96 12.61 27.12 12.49L27.12 12.49L27.12 12.49Q27.82 12.31 28.73 12.14L28.73 12.14L28.73 12.14Q29.65 11.97 30.32 11.97L30.32 11.97Z"></path></g><!----><!----><g data-v-423bf9ae="" id="896008ab-0faf-49df-992e-89b7d651ab2e" fill="#ffffff" transform="matrix(5.714285714285714,0,0,5.714285714285714,-7.200015170233655,119.00000282696315)"><path d="M1.26 2.80L1.26 12.60L3.36 12.60C5.49 12.60 6.55 11.69 6.55 9.87C6.55 9.19 6.32 8.62 5.84 8.17C5.37 7.72 4.81 7.41 4.14 7.25C5.38 7.02 5.99 6.30 5.99 5.11C5.99 4.40 5.74 3.84 5.23 3.42C4.72 3.01 4.00 2.80 3.08 2.80ZM1.68 7.08L1.68 3.21L3.08 3.21C3.85 3.21 4.46 3.37 4.91 3.71C5.35 4.05 5.57 4.51 5.57 5.11C5.57 5.60 5.44 5.99 5.17 6.31C4.90 6.62 4.58 6.83 4.24 6.93C3.89 7.03 3.50 7.08 3.08 7.08ZM1.68 7.48L3.36 7.48C3.76 7.48 4.16 7.56 4.56 7.72C4.97 7.88 5.32 8.16 5.63 8.54C5.94 8.92 6.09 9.37 6.09 9.87C6.09 11.42 5.18 12.19 3.36 12.19L1.68 12.19ZM15.58 2.80L15.58 9.24C15.58 10.29 15.87 11.13 16.44 11.77C17.01 12.42 17.76 12.74 18.70 12.74C19.65 12.74 20.40 12.42 20.97 11.77C21.54 11.13 21.83 10.29 21.83 9.24L21.83 2.80L21.41 2.80L21.41 9.24C21.41 10.17 21.15 10.92 20.64 11.47C20.13 12.02 19.49 12.29 18.70 12.29C17.92 12.29 17.27 12.02 16.77 11.47C16.26 10.92 16.00 10.17 16.00 9.24L16.00 2.80ZM39.96 7.63L35.90 7.63L35.90 8.11L39.48 8.11C39.40 9.32 39.00 10.32 38.29 11.09C37.58 11.87 36.64 12.26 35.48 12.26C34.19 12.26 33.15 11.82 32.35 10.94C31.56 10.06 31.16 8.98 31.16 7.70C31.16 6.40 31.57 5.32 32.38 4.45C33.18 3.57 34.22 3.14 35.48 3.14C36.22 3.14 36.92 3.31 37.55 3.65C38.19 4.00 38.71 4.47 39.09 5.05L39.48 4.75C39.04 4.11 38.48 3.61 37.80 3.24C37.12 2.87 36.34 2.69 35.48 2.69C34.12 2.69 32.99 3.17 32.08 4.13C31.17 5.09 30.72 6.28 30.72 7.70C30.72 9.12 31.17 10.31 32.08 11.27C32.99 12.23 34.12 12.71 35.48 12.71C36.85 12.71 37.94 12.22 38.74 11.23C39.55 10.25 39.96 9.05 39.96 7.63ZM68.87 7.63L64.81 7.63L64.81 8.11L68.39 8.11C68.31 9.32 67.91 10.32 67.20 11.09C66.49 11.87 65.55 12.26 64.39 12.26C63.10 12.26 62.06 11.82 61.26 10.94C60.47 10.06 60.07 8.98 60.07 7.70C60.07 6.40 60.48 5.32 61.29 4.45C62.09 3.57 63.13 3.14 64.39 3.14C65.13 3.14 65.83 3.31 66.47 3.65C67.10 4.00 67.62 4.47 68.00 5.05L68.39 4.75C67.95 4.11 67.39 3.61 66.71 3.24C66.03 2.87 65.25 2.69 64.39 2.69C63.03 2.69 61.90 3.17 60.99 4.13C60.08 5.09 59.63 6.28 59.63 7.70C59.63 9.12 60.08 10.31 60.99 11.27C61.90 12.23 63.03 12.71 64.39 12.71C65.76 12.71 66.85 12.22 67.66 11.23C68.46 10.25 68.87 9.05 68.87 7.63ZM78.32 7.48L82.66 7.48L82.66 7.08L78.32 7.08L78.32 3.21L82.94 3.21L82.94 2.80L77.90 2.80L77.90 12.60L82.94 12.60L82.94 12.19L78.32 12.19ZM99.25 2.80L99.25 11.79L91.76 2.45L91.76 12.60L92.18 12.60L92.18 3.61L99.67 12.95L99.67 2.80ZM109.05 7.48L113.39 7.48L113.39 7.08L109.05 7.08L109.05 3.21L113.67 3.21L113.67 2.80L108.63 2.80L108.63 12.60L113.67 12.60L113.67 12.19L109.05 12.19ZM123.47 2.80ZM123.05 2.80L123.05 12.60L123.47 12.60L123.47 8.48L125.02 8.48L128.14 12.60L128.69 12.60L125.50 8.47C126.39 8.41 127.11 8.15 127.64 7.67C128.18 7.20 128.45 6.52 128.45 5.64C128.45 4.71 128.15 4.00 127.54 3.52C126.93 3.04 126.14 2.80 125.15 2.80ZM123.47 3.21L125.15 3.21C126.01 3.21 126.71 3.41 127.23 3.83C127.75 4.24 128.02 4.85 128.02 5.64C128.02 6.44 127.75 7.04 127.23 7.45C126.71 7.87 126.01 8.08 125.15 8.08L123.47 8.08ZM140.31 2.45L136.04 12.60L136.53 12.60L137.80 9.52L142.81 9.52L144.09 12.60L144.58 12.60ZM140.31 3.50L142.62 9.07L138.00 9.07ZM150.95 3.21L153.47 3.21L153.47 12.60L153.89 12.60L153.89 3.21L156.41 3.21L156.41 2.80L150.95 2.80ZM164.25 7.70C164.25 6.38 164.65 5.29 165.47 4.41C166.28 3.53 167.30 3.09 168.55 3.09C169.79 3.09 170.81 3.53 171.63 4.41C172.44 5.29 172.84 6.38 172.84 7.70C172.84 9.02 172.44 10.11 171.63 10.99C170.81 11.87 169.79 12.31 168.55 12.31C167.30 12.31 166.28 11.87 165.47 10.99C164.65 10.11 164.25 9.02 164.25 7.70ZM163.83 7.70C163.83 9.16 164.27 10.36 165.17 11.30C166.06 12.24 167.18 12.71 168.55 12.71C169.91 12.71 171.04 12.24 171.93 11.30C172.82 10.36 173.26 9.16 173.26 7.70C173.26 6.24 172.82 5.04 171.93 4.10C171.04 3.16 169.91 2.69 168.55 2.69C167.18 2.69 166.06 3.16 165.17 4.10C164.27 5.04 163.83 6.24 163.83 7.70ZM182.64 2.80ZM182.22 2.80L182.22 12.60L182.64 12.60L182.64 8.48L184.20 8.48L187.32 12.60L187.87 12.60L184.67 8.47C185.57 8.41 186.29 8.15 186.82 7.67C187.36 7.20 187.63 6.52 187.63 5.64C187.63 4.71 187.32 4.00 186.72 3.52C186.11 3.04 185.31 2.80 184.32 2.80ZM182.64 3.21L184.32 3.21C185.19 3.21 185.89 3.41 186.41 3.83C186.93 4.24 187.19 4.85 187.19 5.64C187.19 6.44 186.93 7.04 186.41 7.45C185.89 7.87 185.19 8.08 184.32 8.08L182.64 8.08Z"></path></g></svg>